# Blender 5.2.1 LTS
# www.blender.org
mtllib Untitled.mtl
o RenderMesh_125312211911025
v -2.689770 0.028721 -0.045519
v -2.689770 0.073201 -0.085623
v -2.689770 0.013391 -0.060849
v -2.689770 -0.011383 -0.001038
v -2.689770 0.073201 -0.063943
v -2.689770 0.010297 -0.001038
v -2.689770 0.117682 -0.045519
v -2.689770 0.028721 0.043442
v -2.689770 0.133012 -0.060849
v -2.689770 0.013391 0.058772
v -2.689770 0.157786 -0.001038
v -2.689770 0.073201 0.083546
v -2.689770 0.136106 -0.001038
v -2.689770 0.073201 0.061866
v -2.689770 0.117682 0.043442
v -2.689770 0.133012 0.058772
v -2.568196 0.073201 0.061866
v -2.689770 0.028721 0.043442
v -2.689770 0.073201 0.061866
v -2.568196 0.028721 0.043442
v -2.689770 0.010297 -0.001038
v -2.568196 0.117682 0.043442
v -2.689770 0.117682 0.043442
v -2.568196 0.010297 -0.001038
v -2.568196 0.136106 -0.001038
v -2.689770 0.136106 -0.001038
v -2.689770 0.028721 -0.045519
v -2.568196 0.117682 -0.045519
v -2.689770 0.117682 -0.045519
v -2.568196 0.073201 -0.063943
v -2.689770 0.073201 -0.063943
v -2.568196 0.028721 -0.045519
v -2.530770 0.076474 -0.101328
v -2.530770 -0.023903 -0.000952
v -2.530770 0.076474 0.099426
v -2.530770 0.005497 0.070027
v -2.530770 0.005497 -0.071929
v -2.530770 0.176852 -0.000952
v -2.530770 0.147452 -0.071929
v -2.530770 0.147452 0.070027
v 2.689770 0.061184 0.135433
v 2.689770 -0.563860 -0.137509
v 2.689770 0.061184 -0.137509
v 2.689770 -0.563860 0.135433
v 1.072591 0.082527 -0.098090
v 1.072591 0.179580 -0.001038
v 1.072591 -0.014525 -0.001038
v 1.072591 0.151154 -0.069665
v 1.072591 0.013901 -0.069665
v 1.072591 0.151154 0.067589
v 1.072591 0.013901 0.067589
v 1.072591 0.082527 0.096015
v 2.582553 -0.531443 -0.137509
v 2.582553 -0.531443 0.135433
v 2.475337 -0.531443 -0.137509
v 2.475337 -0.531443 0.135433
v 2.657353 -0.563860 0.135433
v 2.657353 -0.563860 -0.137509
v 2.689770 -0.563860 -0.137509
v 2.689770 -0.563860 0.135433
v 0.460412 0.157969 -0.001038
v 0.460412 0.151154 -0.069665
v 0.460412 0.179580 -0.001038
v 0.460412 0.082527 -0.098090
v 0.460412 0.078722 0.083719
v 0.460412 0.132519 0.062107
v 0.140631 -0.014525 -0.001038
v 0.140631 0.179580 -0.001038
v 0.140631 0.082528 -0.098090
v 0.140631 0.151154 -0.069665
v 0.140631 0.013901 -0.069665
v 0.140631 0.151154 0.067589
v 0.140631 0.013901 0.067589
v 0.140631 0.082528 0.096015
v -2.689770 0.013391 0.058772
v 0.143971 0.013391 0.058772
v 0.143971 0.073201 0.083546
v -2.689770 -0.011383 -0.001038
v -2.689770 0.073201 0.083546
v 0.143971 -0.011383 -0.001038
v 0.143971 0.133012 0.058772
v -2.689770 0.013391 -0.060849
v -2.689770 0.133012 0.058772
v 0.143971 0.013391 -0.060849
v 0.143971 0.157786 -0.001038
v -2.689770 0.073201 -0.085623
v -2.689770 0.157786 -0.001038
v 0.143971 0.073201 -0.085623
v 0.143971 0.133012 -0.060849
v -2.689770 0.133012 -0.060849
v 2.689770 0.061184 -0.137509
v 2.582553 -0.531443 -0.137509
v 2.475337 0.061184 -0.137509
v 2.475337 -0.531443 -0.137509
v 2.689770 -0.563860 -0.137509
v 2.657353 -0.563860 -0.137509
v 2.582553 -0.531443 0.135433
v 2.475337 0.061184 0.135433
v 2.475337 -0.531443 0.135433
v 2.689770 0.061184 0.135433
v 2.689770 -0.563860 0.135433
v 2.657353 -0.563860 0.135433
v 1.748255 0.128299 -0.100014
v 1.681555 -0.003779 -0.100014
v 1.681555 0.073065 -0.100014
v 2.361234 0.128299 -0.100014
v 2.427935 -0.003779 -0.100014
v 2.427935 0.073065 -0.100014
v 1.681555 -0.003779 0.097938
v 2.361234 0.128299 0.097938
v 1.748255 0.128299 0.097938
v 1.681555 0.073065 0.097938
v 2.427935 -0.003779 0.097938
v 2.427935 0.073065 0.097938
v 0.460412 0.157969 -0.001038
v 0.718880 0.157969 -0.001038
v 0.718880 0.132519 0.062107
v 0.460412 0.132519 0.062107
v 0.718880 0.078722 0.083719
v 0.460412 0.078722 0.083719
v -2.530770 0.005497 0.070027
v -2.376579 0.005497 0.070027
v -2.376579 0.076474 0.099426
v -2.530770 -0.023903 -0.000952
v -2.530770 0.076474 0.099426
v -2.376579 -0.023903 -0.000952
v -2.376579 0.147452 0.070027
v -2.530770 0.005497 -0.071929
v -2.530770 0.147452 0.070027
v -2.376579 0.005497 -0.071929
v -2.376579 0.176852 -0.000952
v -2.530770 0.076474 -0.101328
v -2.530770 0.176852 -0.000952
v -2.376579 0.076474 -0.101328
v -2.376579 0.147452 -0.071929
v -2.530770 0.147452 -0.071929
v 0.460412 0.179580 -0.001038
v 0.718880 0.179580 -0.001038
v 0.718880 0.157969 -0.001038
v 0.460412 0.157969 -0.001038
v 0.751188 0.013901 0.067589
v 1.072591 0.013901 0.067589
v 1.072591 0.082527 0.096015
v 0.751188 -0.014525 -0.001038
v 1.072591 -0.014525 -0.001038
v 0.751188 0.013901 -0.069665
v 1.072591 0.013901 -0.069665
v 1.072591 0.082527 -0.098090
v 0.718880 0.082527 -0.098090
v 0.718880 0.151154 -0.069665
v 0.460412 0.082527 -0.098090
v 1.072591 0.151154 -0.069665
v 0.718880 0.179580 -0.001038
v 0.428104 0.013901 -0.069665
v 1.072591 0.179580 -0.001038
v 0.140631 0.082528 -0.098090
v 0.460412 0.151154 -0.069665
v 0.140631 0.013901 -0.069665
v 0.140631 0.151154 -0.069665
v 0.428103 -0.014525 -0.001038
v 0.140631 0.179580 -0.001038
v 0.140631 -0.014525 -0.001038
v 0.140631 0.013901 0.067589
v 0.460412 0.179580 -0.001038
v 0.428104 0.013901 0.067589
v 0.428104 0.082527 0.096015
v 0.140631 0.082528 0.096015
v 0.428104 0.151154 0.067589
v 0.140631 0.151154 0.067589
v 0.751188 0.082527 0.096015
v 1.072591 0.151154 0.067589
v 0.751188 0.151154 0.067589
v 2.361234 0.128299 -0.100014
v 2.361234 0.128299 0.097938
v 2.427935 0.073065 -0.100014
v 2.427935 0.073065 0.097938
v 2.427935 -0.003779 -0.100014
v 2.427935 -0.003779 0.097938
v 1.748255 0.128299 0.097938
v 1.748255 0.128299 -0.100014
v 1.681555 0.073065 0.097938
v 1.681555 0.073065 -0.100014
v 1.681555 -0.003779 0.097938
v 1.681555 -0.003779 -0.100014
v 0.591416 0.082527 -0.098090
v 0.718880 0.078722 0.083719
v 0.718880 0.082527 -0.098090
v 0.460412 0.078722 0.083719
v 0.460412 0.082527 -0.098090
v 2.689770 0.061184 -0.137509
v 2.475337 0.061184 -0.137509
v 2.475337 0.061184 0.135433
v 2.689770 0.061184 0.135433
v 0.718880 0.082527 -0.098090
v 0.718880 0.157969 -0.001038
v 0.718880 0.151154 -0.069665
v 0.718880 0.179580 -0.001038
v 0.718880 0.078722 0.083719
v 0.718880 0.132519 0.062107
v 2.475337 0.061184 -0.137509
v 2.475337 -0.531443 -0.137509
v 2.475337 -0.531443 0.135433
v 2.475337 0.061184 0.135433
v -2.376579 -0.023903 -0.000952
v -2.376579 0.076474 -0.101328
v -2.376579 0.076474 0.099426
v -2.376579 0.005497 -0.071929
v -2.376579 0.005497 0.070027
v -2.376579 0.176852 -0.000952
v -2.376579 0.147452 0.070027
v -2.376579 0.147452 -0.071929
vn -1.0000 0.0005 0.0005
vn -0.5619 0.0005 -0.8272
vn 0.0005 0.6913 -0.7226
vn 0.0005 0.0005 -1.0000
vn -0.6024 0.5516 -0.5770
vn 0.0005 1.0000 0.0005
vn -0.6024 -0.5516 -0.5770
vn 0.0005 -0.6913 -0.7226
vn -0.6392 0.7691 0.0005
vn -0.6392 -0.7691 0.0005
vn 0.0005 -1.0000 0.0005
vn 0.0005 0.6913 0.7226
vn -0.6024 -0.5516 0.5770
vn 0.0005 -0.6913 0.7226
vn -0.5619 0.0005 0.8272
vn 0.0005 0.0005 1.0000
vn -0.6024 0.5516 0.5770
vn 1.0000 0.0005 0.0005
vn -0.2030 -0.9792 -0.0000
vn -0.2031 -0.9792 -0.0000
vn -0.2028 -0.9792 0.0004
vn 0.0005 -0.6913 0.7225
vn 0.0005 0.6913 0.7225
vn 0.0005 -0.6913 -0.7225
vn 0.0005 0.6913 -0.7225
vn 0.0004 0.0004 -1.0000
vn 0.0005 -0.9276 -0.3736
vn -0.0000 -0.9275 -0.3738
vn 0.0005 -0.6898 -0.7240
vn 0.0006 -0.3728 -0.9279
vn 0.0005 -0.3728 -0.9279
vn 0.0004 0.0004 1.0000
vn 0.0003 0.0003 1.0000
vn 0.0003 0.0003 -1.0000
vn 0.0005 -0.5886 0.8084
vn 0.0005 -0.5886 -0.8084
vn -0.0000 -0.1368 -0.9906
vn 0.0002 0.9906 0.1370
vn -0.0000 0.9906 0.1368
vn 0.3390 0.9408 -0.0000
vn 0.9049 0.4256 -0.0000
vn 0.9050 0.4254 0.0005
vn -0.3390 0.9408 -0.0000
vn -0.3387 0.9409 0.0004
vn -0.9050 0.4254 0.0005
vn -0.0000 0.9998 0.0209
vt 0.000000 0.000000
s 1
f 1/1/1 2/1/1 3/1/1
f 4/1/1 1/1/1 3/1/1
f 2/1/1 1/1/1 5/1/1
f 1/1/1 4/1/1 6/1/1
f 7/1/1 2/1/1 5/1/1
f 4/1/1 8/1/1 6/1/1
f 2/1/1 7/1/1 9/1/1
f 4/1/1 10/1/1 8/1/1
f 11/1/1 9/1/1 7/1/1
f 12/1/1 8/1/1 10/1/1
f 11/1/1 7/1/1 13/1/1
f 8/1/1 12/1/1 14/1/1
f 15/1/1 11/1/1 13/1/1
f 15/1/1 14/1/1 12/1/1
f 11/1/1 15/1/1 16/1/1
f 12/1/1 16/1/1 15/1/1
f 17/1/2 18/1/3 19/1/4
f 18/1/3 17/1/2 20/1/5
f 18/1/3 20/1/5 21/1/6
f 19/1/4 22/1/7 17/1/2
f 22/1/7 19/1/4 23/1/8
f 24/1/9 21/1/6 20/1/5
f 17/1/2 24/1/9 20/1/5
f 25/1/10 17/1/2 22/1/7
f 23/1/8 25/1/10 22/1/7
f 25/1/10 24/1/9 17/1/2
f 25/1/10 23/1/8 26/1/11
f 21/1/6 24/1/9 27/1/12
f 26/1/11 28/1/13 25/1/10
f 28/1/13 26/1/11 29/1/14
f 30/1/15 25/1/10 28/1/13
f 29/1/14 30/1/15 28/1/13
f 24/1/9 25/1/10 30/1/15
f 30/1/15 29/1/14 31/1/16
f 32/1/17 27/1/12 24/1/9
f 24/1/9 30/1/15 32/1/17
f 32/1/17 31/1/16 27/1/12
f 31/1/16 32/1/17 30/1/15
f 33/1/1 34/1/1 35/1/1
f 35/1/1 34/1/1 36/1/1
f 34/1/1 33/1/1 37/1/1
f 35/1/1 38/1/1 33/1/1
f 33/1/1 38/1/1 39/1/1
f 38/1/1 35/1/1 40/1/1
f 41/1/18 42/1/18 43/1/18
f 42/1/18 41/1/18 44/1/18
f 45/1/18 46/1/18 47/1/18
f 46/1/18 45/1/18 48/1/18
f 45/1/18 47/1/18 49/1/18
f 50/1/18 47/1/18 46/1/18
f 47/1/18 50/1/18 51/1/18
f 51/1/18 50/1/18 52/1/18
f 53/1/19 54/1/20 55/1/11
f 55/1/11 54/1/20 56/1/11
f 53/1/19 57/1/19 54/1/20
f 58/1/21 57/1/19 53/1/19
f 59/1/11 57/1/19 58/1/21
f 57/1/19 59/1/11 60/1/11
f 61/1/18 62/1/18 63/1/18
f 62/1/18 61/1/18 64/1/18
f 61/1/18 65/1/18 64/1/18
f 65/1/18 61/1/18 66/1/18
f 67/1/1 68/1/1 69/1/1
f 69/1/1 68/1/1 70/1/1
f 67/1/1 69/1/1 71/1/1
f 67/1/1 72/1/1 68/1/1
f 72/1/1 67/1/1 73/1/1
f 72/1/1 73/1/1 74/1/1
f 75/1/22 76/1/22 77/1/16
f 78/1/11 76/1/22 75/1/22
f 75/1/22 77/1/16 79/1/16
f 78/1/11 80/1/11 76/1/22
f 79/1/16 77/1/16 81/1/23
f 82/1/24 80/1/11 78/1/11
f 79/1/16 81/1/23 83/1/23
f 82/1/24 84/1/24 80/1/11
f 85/1/6 83/1/23 81/1/23
f 86/1/4 84/1/24 82/1/24
f 83/1/23 85/1/6 87/1/6
f 86/1/4 88/1/4 84/1/24
f 89/1/25 87/1/6 85/1/6
f 90/1/25 88/1/4 86/1/4
f 89/1/25 90/1/25 87/1/6
f 90/1/25 89/1/25 88/1/4
f 91/1/4 92/1/4 93/1/4
f 93/1/4 92/1/4 94/1/4
f 92/1/4 91/1/4 95/1/4
f 96/1/4 92/1/4 95/1/4
f 97/1/16 98/1/16 99/1/16
f 98/1/16 97/1/16 100/1/16
f 97/1/16 101/1/16 100/1/16
f 101/1/16 97/1/16 102/1/16
f 103/1/4 104/1/4 105/1/4
f 106/1/26 104/1/4 103/1/4
f 104/1/4 106/1/26 107/1/4
f 107/1/4 106/1/26 108/1/4
f 109/1/16 110/1/16 111/1/16
f 109/1/16 111/1/16 112/1/16
f 113/1/16 110/1/16 109/1/16
f 110/1/16 113/1/16 114/1/16
f 115/1/27 116/1/28 117/1/29
f 115/1/27 117/1/29 118/1/29
f 119/1/30 118/1/29 117/1/29
f 118/1/29 119/1/30 120/1/31
f 121/1/22 122/1/14 123/1/32
f 124/1/11 122/1/14 121/1/22
f 121/1/22 123/1/32 125/1/33
f 124/1/11 126/1/11 122/1/14
f 125/1/33 123/1/32 127/1/12
f 128/1/8 126/1/11 124/1/11
f 125/1/33 127/1/12 129/1/12
f 128/1/8 130/1/8 126/1/11
f 131/1/6 129/1/12 127/1/12
f 132/1/26 130/1/8 128/1/8
f 131/1/6 133/1/6 129/1/12
f 132/1/26 134/1/34 130/1/8
f 135/1/3 133/1/6 131/1/6
f 136/1/3 134/1/34 132/1/26
f 135/1/3 136/1/3 133/1/6
f 136/1/3 135/1/3 134/1/34
f 137/1/4 138/1/4 139/1/4
f 137/1/4 139/1/4 140/1/4
f 141/1/35 142/1/14 143/1/16
f 144/1/11 142/1/14 141/1/35
f 144/1/11 145/1/11 142/1/14
f 146/1/36 145/1/11 144/1/11
f 146/1/36 147/1/8 145/1/11
f 146/1/36 148/1/4 147/1/8
f 148/1/4 146/1/36 149/1/37
f 150/1/25 148/1/4 149/1/37
f 146/1/36 151/1/37 149/1/37
f 150/1/25 152/1/3 148/1/4
f 152/1/3 150/1/25 153/1/38
f 151/1/37 146/1/36 154/1/36
f 152/1/3 153/1/38 155/1/6
f 156/1/4 151/1/37 154/1/36
f 156/1/4 157/1/3 151/1/37
f 156/1/4 154/1/36 158/1/8
f 157/1/3 156/1/4 159/1/3
f 158/1/8 154/1/36 160/1/11
f 161/1/6 157/1/3 159/1/3
f 158/1/8 160/1/11 162/1/11
f 160/1/11 163/1/14 162/1/11
f 157/1/3 161/1/6 164/1/39
f 163/1/14 160/1/11 165/1/35
f 163/1/14 165/1/35 166/1/33
f 165/1/35 141/1/35 166/1/33
f 163/1/14 166/1/33 167/1/16
f 161/1/6 168/1/12 164/1/39
f 167/1/16 166/1/33 168/1/12
f 168/1/12 161/1/6 169/1/23
f 167/1/16 168/1/12 169/1/23
f 170/1/33 166/1/33 141/1/35
f 166/1/33 170/1/33 168/1/12
f 141/1/35 143/1/16 170/1/33
f 170/1/33 143/1/16 171/1/12
f 172/1/12 168/1/12 170/1/33
f 170/1/33 171/1/12 172/1/12
f 172/1/12 164/1/39 168/1/12
f 155/1/6 172/1/12 171/1/12
f 164/1/39 172/1/12 153/1/38
f 155/1/6 153/1/38 172/1/12
f 173/1/40 174/1/40 175/1/41
f 175/1/41 174/1/40 176/1/42
f 175/1/41 176/1/42 177/1/18
f 177/1/18 176/1/42 178/1/18
f 173/1/40 179/1/43 174/1/40
f 173/1/40 180/1/44 179/1/43
f 180/1/44 181/1/45 179/1/43
f 182/1/45 181/1/45 180/1/44
f 182/1/45 183/1/1 181/1/45
f 184/1/1 183/1/1 182/1/45
f 185/1/46 186/1/46 187/1/46
f 185/1/46 188/1/46 186/1/46
f 188/1/46 185/1/46 189/1/46
f 190/1/6 191/1/6 192/1/6
f 190/1/6 192/1/6 193/1/6
f 194/1/1 195/1/1 196/1/1
f 196/1/1 195/1/1 197/1/1
f 198/1/1 195/1/1 194/1/1
f 195/1/1 198/1/1 199/1/1
f 200/1/1 201/1/1 202/1/1
f 200/1/1 202/1/1 203/1/1
f 204/1/18 205/1/18 206/1/18
f 205/1/18 204/1/18 207/1/18
f 204/1/18 206/1/18 208/1/18
f 205/1/18 209/1/18 206/1/18
f 206/1/18 209/1/18 210/1/18
f 209/1/18 205/1/18 211/1/18
